<?xml version="1.0" standalone="no"?>
<!DOCTYPE svg PUBLIC "-//W3C//DTD SVG 20010904//EN"
 "http://www.w3.org/TR/2001/REC-SVG-20010904/DTD/svg10.dtd">
<svg version="1.0" xmlns="http://www.w3.org/2000/svg"
 width="235.000000pt" height="105.000000pt" viewBox="0 0 235.000000 105.000000"
 preserveAspectRatio="xMidYMid meet">

<g transform="translate(0.000000,105.000000) scale(0.100000,-0.100000)"
fill="#000000" stroke="none">
<path d="M364 824 c-53 -19 -120 -86 -145 -142 -22 -51 -24 -139 -5 -193 19
-53 63 -107 114 -136 62 -36 170 -44 233 -16 65 29 105 67 133 128 59 124 19
262 -96 336 -42 27 -61 33 -121 35 -47 3 -86 -2 -113 -12z m191 -40 c96 -46
150 -154 126 -251 -43 -167 -234 -234 -360 -126 -71 61 -98 138 -80 225 15 69
94 151 160 166 51 12 111 6 154 -14z"/>
<path d="M300 675 c-10 -12 -2 -31 42 -107 30 -51 61 -93 69 -93 7 0 20 12 27
27 12 25 10 33 -14 75 -62 108 -94 134 -124 98z"/>
<path d="M446 668 c-9 -12 -16 -27 -16 -32 0 -5 19 -42 43 -83 26 -47 50 -76
64 -79 28 -7 43 2 43 26 0 23 -97 190 -110 190 -5 0 -16 -10 -24 -22z"/>
<path d="M556 665 c-8 -22 -9 -19 15 -46 20 -24 21 -24 35 -4 22 30 14 59 -17
63 -17 2 -29 -3 -33 -13z"/>
<path d="M1177 783 c-11 -10 -8 -41 4 -49 6 -3 18 1 27 9 13 13 13 19 2 31
-14 17 -23 20 -33 9z"/>
<path d="M820 761 c0 -11 5 -21 12 -23 6 -2 24 -40 38 -84 21 -64 31 -80 49
-82 17 -3 26 6 44 48 l23 51 21 -51 c18 -43 26 -51 44 -48 18 2 27 18 49 82
14 44 32 82 38 84 7 2 12 12 12 23 0 16 -7 19 -50 19 -43 0 -50 -3 -50 -19 0
-11 5 -21 11 -23 8 -3 8 -16 -1 -48 l-12 -45 -19 50 c-10 28 -19 56 -19 63 0
6 -11 12 -23 12 -20 0 -27 -9 -42 -61 l-19 -62 -15 44 c-10 31 -11 44 -2 47 6
2 11 12 11 23 0 16 -7 19 -50 19 -43 0 -50 -3 -50 -19z"/>
<path d="M1240 766 c0 -8 5 -18 10 -21 14 -9 13 -132 -2 -137 -6 -2 -9 -12 -5
-21 9 -23 75 -23 84 0 4 9 1 19 -5 21 -8 2 -12 32 -12 88 l0 84 -35 0 c-24 0
-35 -5 -35 -14z"/>
<path d="M1847 773 c-13 -12 -7 -41 12 -64 l18 -23 17 33 c14 25 15 36 5 47
-12 15 -41 19 -52 7z m33 -43 c-6 -11 -13 -20 -16 -20 -2 0 0 9 6 20 6 11 13
20 16 20 2 0 0 -9 -6 -20z"/>
<path d="M1362 714 c-12 -8 -22 -24 -22 -34 0 -21 36 -50 62 -50 10 0 18 -4
18 -10 0 -5 -6 -10 -14 -10 -8 0 -18 5 -21 10 -3 6 -15 10 -26 10 -24 0 -27
-45 -3 -54 24 -9 73 -7 95 4 24 13 26 65 3 78 -15 8 -15 10 0 15 21 8 21 43 0
51 -28 11 -69 6 -92 -10z m68 -34 c0 -5 -9 -10 -20 -10 -11 0 -20 5 -20 10 0
6 9 10 20 10 11 0 20 -4 20 -10z"/>
<path d="M1516 709 c-56 -44 -20 -139 53 -139 41 0 71 34 71 78 0 43 -7 55
-37 71 -32 16 -57 14 -87 -10z m82 -55 c6 -40 -48 -56 -62 -18 -10 26 5 45 33
42 17 -2 27 -10 29 -24z"/>
<path d="M1708 723 c-40 -3 -48 -8 -48 -24 0 -10 5 -19 10 -19 6 0 10 -13 10
-29 0 -17 -4 -33 -10 -36 -5 -3 -10 -15 -10 -26 0 -16 7 -19 40 -19 44 0 61
19 40 45 -18 22 -9 60 15 60 18 0 20 -6 17 -52 l-3 -53 36 0 c38 0 55 20 37
43 -5 6 -12 29 -16 49 -6 36 -38 70 -61 66 -5 -1 -31 -3 -57 -5z"/>
<path d="M1942 714 c-12 -8 -22 -24 -22 -34 0 -21 36 -50 62 -50 10 0 18 -4
18 -10 0 -5 -9 -10 -20 -10 -11 0 -20 5 -20 10 0 6 -9 10 -20 10 -23 0 -27
-29 -8 -48 15 -15 72 -16 99 -2 24 13 26 65 3 78 -15 8 -15 10 0 15 21 8 21
43 0 51 -28 11 -69 6 -92 -10z m68 -34 c0 -5 -9 -10 -20 -10 -11 0 -20 5 -20
10 0 6 9 10 20 10 11 0 20 -4 20 -10z"/>
<path d="M1150 700 c0 -11 5 -20 10 -20 6 0 10 -16 10 -35 0 -19 -4 -35 -10
-35 -5 0 -10 -9 -10 -20 0 -17 7 -20 40 -20 33 0 40 3 40 19 0 11 -4 23 -10
26 -5 3 -10 28 -10 56 0 48 -1 49 -30 49 -23 0 -30 -4 -30 -20z"/>
<path d="M981 548 c-21 -8 -34 -35 -24 -51 4 -7 6 -24 5 -38 -3 -22 2 -27 27
-32 17 -4 41 -3 54 1 12 4 49 5 82 1 56 -5 57 -6 15 -7 -60 -3 -311 -40 -319
-48 -3 -3 14 -3 39 1 317 46 848 46 1170 0 19 -2 10 2 -20 10 -30 7 -103 19
-162 26 -93 11 -105 14 -89 25 10 8 22 25 25 39 9 35 24 24 18 -13 -4 -27 -1
-30 30 -34 52 -8 80 7 76 40 -2 21 -10 29 -35 37 -18 5 -33 13 -33 17 0 11 28
10 35 -2 11 -17 35 -11 35 9 0 13 -10 20 -36 24 -42 7 -61 1 -75 -25 -10 -18
-11 -18 -27 3 -25 31 -88 31 -113 0 -11 -13 -19 -32 -19 -44 0 -11 -3 -17 -7
-13 -5 4 -8 22 -8 39 l0 32 -131 3 -132 3 6 -48 c2 -26 9 -54 15 -60 7 -10 3
-13 -17 -13 -23 0 -26 4 -25 38 0 73 -3 80 -40 86 -66 10 -111 -47 -78 -98 15
-22 15 -24 -3 -29 -17 -4 -20 0 -20 24 0 31 -17 39 -26 14 -9 -21 -44 -19 -43
3 0 10 3 12 6 5 9 -24 23 -13 23 17 0 30 -14 41 -23 18 -3 -8 -6 -6 -6 5 -1
21 34 23 43 2 9 -24 26 -18 26 9 0 24 -2 25 -101 28 -55 2 -109 0 -118 -4z
m469 -59 c0 -28 -4 -39 -15 -39 -11 0 -15 11 -15 38 0 21 3 42 6 45 14 13 24
-6 24 -44z m-409 29 c17 -10 23 -10 26 0 10 26 23 10 23 -28 0 -42 -16 -56
-22 -17 -2 15 -13 25 -35 32 -18 5 -33 13 -33 17 0 12 17 10 41 -4z m264 1 c4
-6 -1 -16 -11 -24 -15 -11 -16 -15 -5 -29 11 -14 11 -16 -2 -16 -19 0 -24 15
-19 52 4 28 25 38 37 17z m215 -18 c0 -31 -25 -87 -33 -74 -11 17 5 103 19
103 9 0 14 -11 14 -29z m60 14 c0 -8 -4 -15 -10 -15 -5 0 -10 7 -10 15 0 8 5
15 10 15 6 0 10 -7 10 -15z m150 -25 c0 -29 -4 -40 -15 -40 -11 0 -15 11 -15
40 0 29 4 40 15 40 11 0 15 -11 15 -40z m-704 -32 c4 -5 -4 -8 -17 -6 -12 1
-24 8 -26 15 -5 14 34 6 43 -9z m554 7 c0 -8 -4 -15 -10 -15 -5 0 -10 7 -10
15 0 8 5 15 10 15 6 0 10 -7 10 -15z m286 -7 c4 -5 -4 -8 -17 -6 -12 1 -24 8
-26 15 -5 14 34 6 43 -9z m-201 -18 c3 -5 -1 -10 -10 -10 -9 0 -13 5 -10 10 3
6 8 10 10 10 2 0 7 -4 10 -10z"/>
<path d="M1924 529 c-9 -16 21 -43 40 -36 9 4 16 16 16 27 0 15 -7 20 -24 20
-14 0 -28 -5 -32 -11z"/>
<path d="M960 361 c-15 -29 -2 -51 29 -50 23 2 24 2 4 6 -15 3 -23 12 -23 24
0 11 10 24 23 29 l22 9 -22 0 c-12 1 -27 -8 -33 -18z"/>
<path d="M1070 360 c-9 -16 -8 -25 1 -36 26 -32 84 0 62 34 -16 26 -50 27 -63
2z m52 -2 c8 -21 -2 -38 -23 -38 -19 0 -27 29 -12 43 11 11 31 8 35 -5z"/>
<path d="M1201 343 c1 -21 3 -30 6 -20 5 18 5 18 20 0 12 -15 14 -15 10 -2 -3
9 -1 21 5 27 14 14 1 32 -23 32 -16 0 -19 -7 -18 -37z m29 17 c0 -5 -4 -10
-10 -10 -5 0 -10 5 -10 10 0 6 5 10 10 10 6 0 10 -4 10 -10z"/>
<path d="M1301 343 c1 -21 3 -30 6 -20 5 18 5 18 20 0 12 -15 14 -15 10 -2 -3
9 -1 21 5 27 14 14 1 32 -23 32 -16 0 -19 -7 -18 -37z m29 17 c0 -5 -4 -10
-10 -10 -5 0 -10 5 -10 10 0 6 5 10 10 10 6 0 10 -4 10 -10z"/>
<path d="M1408 363 c-7 -32 3 -53 25 -52 17 1 18 2 5 6 -10 2 -18 8 -18 13 0
5 8 11 18 13 16 4 16 5 0 6 -26 2 -22 19 5 24 20 4 19 4 -4 6 -18 1 -28 -5
-31 -16z"/>
<path d="M1507 372 c6 -4 13 -21 16 -37 l4 -30 2 32 c0 21 7 33 19 36 9 3 1 5
-18 6 -19 0 -30 -3 -23 -7z"/>
<path d="M1609 364 c-26 -31 25 -70 56 -44 20 16 19 46 -1 54 -25 10 -41 7
-55 -10z m53 -6 c8 -21 -2 -38 -23 -38 -19 0 -27 29 -12 43 11 11 31 8 35 -5z"/>
<path d="M1738 356 c-3 -14 -1 -31 3 -38 6 -9 9 -8 9 6 0 20 0 20 16 0 12 -14
14 -15 11 -3 -3 9 -1 21 5 27 14 14 1 32 -21 32 -12 0 -20 -9 -23 -24z m32 4
c0 -5 -4 -10 -10 -10 -5 0 -10 5 -10 10 0 6 5 10 10 10 6 0 10 -4 10 -10z"/>
<path d="M1855 349 c-18 -34 -15 -48 5 -24 16 19 30 19 30 0 0 -8 5 -15 11
-15 7 0 8 7 4 18 -4 9 -10 25 -12 35 -8 25 -20 21 -38 -14z"/>
<path d="M2088 363 c7 -3 16 -2 19 1 4 3 -2 6 -13 5 -11 0 -14 -3 -6 -6z"/>
</g>
</svg>
