<?xml version="1.0" standalone="no"?>
<!DOCTYPE svg PUBLIC "-//W3C//DTD SVG 20010904//EN"
 "http://www.w3.org/TR/2001/REC-SVG-20010904/DTD/svg10.dtd">
<svg version="1.0" xmlns="http://www.w3.org/2000/svg"
 width="90.000000pt" height="24.000000pt" viewBox="0 0 90.000000 24.000000"
 preserveAspectRatio="xMidYMid meet">

<g transform="translate(0.000000,24.000000) scale(0.100000,-0.100000)"
fill="#000000" stroke="none">
<path d="M83 233 c9 -2 23 -2 30 0 6 3 -1 5 -18 5 -16 0 -22 -2 -12 -5z"/>
<path d="M20 205 c-7 -9 -11 -17 -9 -20 3 -2 10 5 17 15 14 24 10 26 -8 5z"/>
<path d="M54 175 c-13 -11 -14 -13 -3 -9 10 3 19 -2 23 -12 5 -13 2 -15 -19
-12 -13 3 -22 1 -19 -3 3 -5 16 -9 29 -9 14 0 25 -7 28 -17 4 -17 5 -17 6 0 1
11 9 17 25 17 14 0 27 4 30 9 3 4 -6 6 -19 3 -21 -3 -24 -1 -19 12 4 10 13 15
23 12 11 -4 10 -2 -3 9 -11 8 -25 15 -30 14 -6 0 -5 -3 1 -6 10 -3 10 -10 2
-26 -11 -20 -12 -20 -25 -2 -11 15 -11 20 -1 27 6 4 7 8 1 8 -5 0 -19 -7 -30
-15z"/>
<path d="M240 145 c0 -33 4 -45 15 -45 9 0 15 9 15 23 1 20 1 21 11 4 10 -18
11 -18 25 0 13 17 13 17 14 -4 0 -14 6 -23 15 -23 11 0 15 12 15 45 0 37 -3
45 -18 45 -11 0 -23 -10 -29 -22 l-10 -23 -7 23 c-4 13 -15 22 -27 22 -16 0
-19 -7 -19 -45z"/>
<path d="M381 159 c-15 -43 -14 -59 4 -59 8 0 15 5 15 10 0 6 9 10 19 10 11 0
23 -4 26 -10 3 -5 12 -10 20 -10 11 0 12 7 1 43 -10 36 -16 42 -43 45 -27 3
-32 -1 -42 -29z m45 -26 c-11 -11 -19 6 -11 24 8 17 8 17 12 0 3 -10 2 -21 -1
-24z"/>
<path d="M490 145 c0 -33 4 -45 15 -45 8 0 15 9 15 19 0 14 8 21 28 23 34 4
47 48 13 48 -14 0 -19 -5 -15 -15 4 -8 1 -15 -5 -15 -6 0 -11 7 -11 15 0 8 -9
15 -20 15 -17 0 -20 -7 -20 -45z"/>
<path d="M600 145 c0 -33 4 -45 15 -45 8 0 15 9 15 20 0 16 7 20 31 20 17 0
28 4 24 10 -3 6 -17 10 -31 10 -36 0 -29 18 9 23 24 3 21 4 -15 5 l-48 2 0
-45z"/>
<path d="M700 145 c0 -35 4 -45 16 -45 9 0 18 9 21 20 3 11 9 20 14 20 5 0 9
-9 9 -20 0 -11 6 -20 14 -20 10 0 14 13 14 45 -1 37 -5 45 -19 45 -12 0 -16
-5 -13 -15 4 -8 1 -15 -5 -15 -6 0 -11 7 -11 15 0 8 -9 15 -20 15 -17 0 -20
-7 -20 -45z"/>
<path d="M810 145 l0 -45 45 0 c25 0 45 5 45 10 0 6 -13 10 -30 10 -16 0 -30
5 -30 10 0 6 14 10 30 10 17 0 30 5 30 10 0 6 -13 10 -30 10 -40 0 -38 18 3
23 24 3 21 4 -15 5 l-48 2 0 -45z"/>
<path d="M2 145 c0 -16 2 -22 5 -12 2 9 2 23 0 30 -3 6 -5 -1 -5 -18z"/>
<path d="M182 145 c0 -16 2 -22 5 -12 2 9 2 23 0 30 -3 6 -5 -1 -5 -18z"/>
<path d="M147 85 c-15 -14 -24 -25 -19 -25 5 0 19 11 32 25 30 32 23 32 -13 0z"/>
<path d="M47 69 c7 -7 15 -10 18 -7 3 3 -2 9 -12 12 -14 6 -15 5 -6 -5z"/>
<path d="M247 63 c-13 -12 -7 -33 8 -33 21 0 19 -17 -2 -24 -14 -4 -14 -4 2
-3 24 3 34 37 11 37 -19 0 -21 16 -3 23 6 3 7 6 1 6 -6 1 -14 -2 -17 -6z"/>
<path d="M300 35 c0 -30 3 -35 23 -34 16 1 18 2 5 6 -10 2 -18 8 -18 13 0 5 8
11 18 13 16 4 16 5 0 6 -10 0 -18 5 -18 10 0 5 8 12 18 14 13 4 11 5 -5 6 -20
1 -23 -4 -23 -34z"/>
<path d="M360 55 c-16 -19 -3 -57 18 -53 18 4 30 38 13 38 -6 0 -8 -7 -4 -16
4 -12 2 -15 -8 -12 -21 7 -18 43 3 42 10 -1 15 2 12 7 -8 13 -20 11 -34 -6z"/>
<path d="M422 42 c-1 -22 3 -35 14 -39 20 -7 34 13 33 47 -1 23 -2 23 -8 -4
-9 -42 -29 -44 -34 -4 l-4 33 -1 -33z"/>
<path d="M480 33 c1 -33 2 -36 13 -21 12 15 14 15 24 0 9 -14 11 -11 9 18 -1
28 -5 36 -23 38 -21 3 -23 -1 -23 -35z m40 17 c0 -5 -4 -10 -10 -10 -5 0 -10
5 -10 10 0 6 5 10 10 10 6 0 10 -4 10 -10z"/>
<path d="M554 56 c-9 -23 0 -51 16 -51 10 0 15 10 15 29 0 32 -21 47 -31 22z
m26 -21 c0 -14 -4 -25 -10 -25 -5 0 -10 11 -10 25 0 14 5 25 10 25 6 0 10 -11
10 -25z"/>
<path d="M617 63 c-13 -12 -7 -33 8 -33 21 0 19 -17 -2 -24 -14 -4 -14 -4 2
-3 24 3 34 37 11 37 -22 0 -20 17 2 23 14 4 14 5 1 6 -9 0 -19 -2 -22 -6z"/>
</g>
</svg>
